<svg width="42" height="42" viewBox="0 0 42 42" fill="none" xmlns="http://www.w3.org/2000/svg">
<path d="M14.9033 20.5261C14.7788 20.4015 14.7088 20.2327 14.7088 20.0566C14.7088 19.8805 14.7788 19.7116 14.9033 19.5871L19.5973 14.8961C20.0265 14.4558 20.5389 14.1051 21.1048 13.8644C21.6706 13.6236 22.2786 13.4977 22.8935 13.4937C23.5084 13.4898 24.118 13.608 24.6869 13.8415C25.2557 14.075 25.7726 14.4191 26.2074 14.8539C26.6423 15.2887 26.9865 15.8055 27.22 16.3743C27.4536 16.9431 27.5719 17.5527 27.5681 18.1676C27.5642 18.7825 27.4384 19.3905 27.1977 19.9564C26.9571 20.5223 26.6065 21.0347 26.1663 21.4641L20.0663 27.5641C19.4413 28.1734 18.6014 28.512 17.7286 28.5064C16.8557 28.5008 16.0203 28.1515 15.4032 27.5342C14.7861 26.9168 14.4371 26.0812 14.4319 25.2083C14.4267 24.3355 14.7656 23.4957 15.3753 22.8711L20.5363 17.7101C20.9112 17.3441 21.4153 17.1406 21.9392 17.1438C22.4631 17.147 22.9647 17.3567 23.3351 17.7272C23.7055 18.0978 23.915 18.5994 23.918 19.1233C23.921 19.6473 23.7174 20.1513 23.3513 20.5261L19.5973 24.2791C19.4729 24.4034 19.3042 24.4733 19.1283 24.4733C18.9524 24.4733 18.7837 24.4034 18.6593 24.2791C18.5349 24.1547 18.465 23.986 18.465 23.8101C18.465 23.6342 18.5349 23.4654 18.6593 23.3411L22.4123 19.5871C22.4739 19.5255 22.5227 19.4524 22.556 19.3719C22.5894 19.2914 22.6065 19.2052 22.6065 19.1181C22.6065 19.031 22.5894 18.9447 22.556 18.8642C22.5227 18.7838 22.4739 18.7107 22.4123 18.6491C22.3507 18.5875 22.2776 18.5386 22.1971 18.5053C22.1166 18.472 22.0304 18.4548 21.9433 18.4548C21.8562 18.4548 21.7699 18.472 21.6894 18.5053C21.609 18.5386 21.5359 18.5875 21.4743 18.6491L16.3133 23.8101C15.94 24.1834 15.7303 24.6896 15.7303 25.2176C15.7303 25.479 15.7817 25.7378 15.8818 25.9793C15.9818 26.2208 16.1284 26.4402 16.3133 26.6251C16.4981 26.8099 16.7175 26.9565 16.959 27.0565C17.2005 27.1566 17.4594 27.2081 17.7208 27.2081C18.2487 27.2081 18.755 26.9984 19.1283 26.6251L25.2283 20.5251C25.5485 20.2198 25.8044 19.8535 25.981 19.4478C26.1576 19.0421 26.2513 18.6052 26.2565 18.1628C26.2617 17.7204 26.1784 17.2814 26.0115 16.8716C25.8446 16.4619 25.5974 16.0897 25.2844 15.7769C24.9715 15.4641 24.5992 15.217 24.1894 15.0503C23.7795 14.8835 23.3405 14.8004 22.8981 14.8058C22.4557 14.8112 22.0188 14.9051 21.6132 15.0818C21.2076 15.2586 20.8414 15.5147 20.5363 15.8351L15.8443 20.5261C15.7198 20.6503 15.5511 20.72 15.3753 20.72C15.1994 20.72 15.0307 20.6503 14.9063 20.5261" fill="black" fill-opacity="0.45"/>
</svg>
