<svg width="34" height="34" viewBox="0 0 34 34" fill="none" xmlns="http://www.w3.org/2000/svg">
<circle cx="17" cy="17" r="17" fill="#060D01"/>
<path fill-rule="evenodd" clip-rule="evenodd" d="M12.6246 16.9999C12.6246 16.1213 11.9086 15.4053 11.0273 15.4053C10.1473 15.4053 9.42993 16.1213 9.42993 16.9999C9.42993 17.8799 10.1473 18.5959 11.0273 18.5959C11.9086 18.5959 12.6246 17.8799 12.6246 16.9999ZM18.5973 16.9999C18.5973 16.1213 17.88 15.4053 17 15.4053C16.1187 15.4053 15.4027 16.1213 15.4027 16.9999C15.4027 17.8799 16.1187 18.5959 17 18.5959C17.88 18.5959 18.5973 17.8799 18.5973 16.9999ZM22.972 15.4053C23.8533 15.4053 24.5693 16.1213 24.5693 16.9999C24.5693 17.8799 23.8533 18.5959 22.972 18.5959C22.092 18.5959 21.3747 17.8799 21.3747 16.9999C21.3747 16.1213 22.092 15.4053 22.972 15.4053Z" fill="white"/>
</svg>
