<svg width="20" height="20" viewBox="0 0 20 20" fill="none" xmlns="http://www.w3.org/2000/svg">
<path fill-rule="evenodd" clip-rule="evenodd" d="M8.44368 1.5062C8.99259 1.56719 9.38813 2.06161 9.32714 2.61052L8.89496 6.50009H11.8827L12.3394 2.38966C12.4004 1.84075 12.8948 1.44521 13.4437 1.5062C13.9926 1.56719 14.3881 2.06161 14.3271 2.61052L13.895 6.50009H16.6666C17.2189 6.50009 17.6666 6.9478 17.6666 7.50009C17.6666 8.05237 17.2189 8.50009 16.6666 8.50009H13.6727L13.3394 11.5001H16.6666C17.2189 11.5001 17.6666 11.9478 17.6666 12.5001C17.6666 13.0524 17.2189 13.5001 16.6666 13.5001H13.1172L12.6605 17.6105C12.5995 18.1594 12.1051 18.555 11.5562 18.494C11.0072 18.433 10.6117 17.9386 10.6727 17.3897L11.1049 13.5001H8.11718L7.66047 17.6105C7.59948 18.1594 7.10506 18.555 6.55615 18.494C6.00725 18.433 5.61171 17.9386 5.6727 17.3897L6.10488 13.5001H3.33325C2.78097 13.5001 2.33325 13.0524 2.33325 12.5001C2.33325 11.9478 2.78097 11.5001 3.33325 11.5001H6.3271L6.66043 8.50009H3.33325C2.78097 8.50009 2.33325 8.05237 2.33325 7.50009C2.33325 6.9478 2.78097 6.50009 3.33325 6.50009H6.88265L7.33937 2.38966C7.40036 1.84075 7.89478 1.44521 8.44368 1.5062ZM11.3271 11.5001L11.6604 8.50009H8.67274L8.33941 11.5001H11.3271Z" fill="#435971"/>
</svg>
