<svg width="43" height="42" viewBox="0 0 43 42" fill="none" xmlns="http://www.w3.org/2000/svg">
<path d="M21.2037 30C16.233 30 12.2037 25.9707 12.2037 21C12.2037 16.0293 16.233 12 21.2037 12C26.1744 12 30.2037 16.0293 30.2037 21C30.2037 25.9707 26.1744 30 21.2037 30ZM21.2037 28.2C23.1132 28.2 24.9446 27.4414 26.2948 26.0912C27.6451 24.7409 28.4037 22.9096 28.4037 21C28.4037 19.0904 27.6451 17.2591 26.2948 15.9088C24.9446 14.5586 23.1132 13.8 21.2037 13.8C19.2941 13.8 17.4628 14.5586 16.1125 15.9088C14.7622 17.2591 14.0037 19.0904 14.0037 21C14.0037 22.9096 14.7622 24.7409 16.1125 26.0912C17.4628 27.4414 19.2941 28.2 21.2037 28.2ZM20.3037 16.5H22.1037V18.3H20.3037V16.5ZM20.3037 20.1H22.1037V25.5H20.3037V20.1Z" fill="black" fill-opacity="0.45"/>
</svg>
