<svg width="16" height="16" viewBox="0 0 16 16" fill="none" xmlns="http://www.w3.org/2000/svg">
<path d="M7.99984 1.6001C6.58535 1.6001 5.2288 2.12979 4.2286 3.07265C3.22841 4.01551 2.6665 5.2943 2.6665 6.6277C2.6665 10.5492 7.51499 14.1508 7.69923 14.3016C7.78483 14.3654 7.89074 14.4001 7.99984 14.4001C8.10893 14.4001 8.21485 14.3654 8.30044 14.3016C8.48469 14.1508 13.3332 10.5492 13.3332 6.6277C13.3332 5.2943 12.7713 4.01551 11.7711 3.07265C10.7709 2.12979 9.41432 1.6001 7.99984 1.6001ZM7.99984 8.91297C7.52037 8.91297 7.05166 8.77894 6.653 8.52784C6.25434 8.27673 5.94361 7.91982 5.76013 7.50224C5.57664 7.08466 5.52864 6.62516 5.62218 6.18187C5.71572 5.73857 5.9466 5.33137 6.28564 5.01177C6.62468 4.69217 7.05663 4.47451 7.52689 4.38634C7.99715 4.29816 8.48458 4.34342 8.92755 4.51638C9.37053 4.68935 9.74914 4.98226 10.0155 5.35807C10.2819 5.73388 10.4241 6.17572 10.4241 6.6277C10.4241 7.23379 10.1687 7.81506 9.71404 8.24363C9.2594 8.6722 8.64279 8.91297 7.99984 8.91297Z" fill="#3A3C40"/>
</svg>
