<svg width="16" height="17" viewBox="0 0 16 17" fill="none" xmlns="http://www.w3.org/2000/svg">
<path fill-rule="evenodd" clip-rule="evenodd" d="M8.66675 3.83317C8.66675 3.46498 8.36827 3.1665 8.00008 3.1665C7.63189 3.1665 7.33342 3.46498 7.33342 3.83317V7.83317H3.33341C2.96522 7.83317 2.66675 8.13165 2.66675 8.49984C2.66675 8.86803 2.96522 9.1665 3.33341 9.1665H7.33342V13.1665C7.33342 13.5347 7.63189 13.8332 8.00008 13.8332C8.36827 13.8332 8.66675 13.5347 8.66675 13.1665V9.1665H12.6667C13.0349 9.1665 13.3334 8.86803 13.3334 8.49984C13.3334 8.13165 13.0349 7.83317 12.6667 7.83317H8.66675V3.83317Z" fill="#1C309D" fill-opacity="0.7"/>
</svg>
