<svg width="18" height="18" viewBox="0 0 18 18" fill="none" xmlns="http://www.w3.org/2000/svg">
<path fill-rule="evenodd" clip-rule="evenodd" d="M2 7.83333C2 4.61167 4.61167 2 7.83333 2C11.055 2 13.6667 4.61167 13.6667 7.83333C13.6667 9.40098 13.0483 10.8242 12.0422 11.8724C12.0109 11.8969 11.9808 11.9235 11.9521 11.9523C11.9233 11.9811 11.8967 12.0112 11.8721 12.0424C10.824 13.0484 9.40087 13.6667 7.83333 13.6667C4.61167 13.6667 2 11.055 2 7.83333ZM12.62 14.0345C11.2963 15.0578 9.63593 15.6667 7.83333 15.6667C3.5071 15.6667 0 12.1596 0 7.83333C0 3.5071 3.5071 0 7.83333 0C12.1596 0 15.6667 3.5071 15.6667 7.83333C15.6667 9.63605 15.0577 11.2965 14.0343 12.6203L17.0819 15.6679C17.4724 16.0585 17.4724 16.6916 17.0819 17.0822C16.6914 17.4727 16.0582 17.4727 15.6677 17.0822L12.62 14.0345Z" fill="#22242C"/>
</svg>
