<svg width="36" height="37" viewBox="0 0 36 37" fill="none" xmlns="http://www.w3.org/2000/svg">
<rect x="0.5" width="35.5" height="37" rx="17.75" fill="#F0F0F0"/>
<path fill-rule="evenodd" clip-rule="evenodd" d="M22.75 12C22.0596 12 21.5 12.5596 21.5 13.25C21.5 13.4644 21.554 13.6662 21.6491 13.8426C21.6566 13.8543 21.664 13.8663 21.6711 13.8785C21.6781 13.8906 21.6849 13.9028 21.6914 13.9151C21.9127 14.2665 22.3041 14.5 22.75 14.5C23.4404 14.5 24 13.9404 24 13.25C24 12.5596 23.4404 12 22.75 12ZM20.5824 15.6716C21.1575 16.1867 21.9172 16.5 22.75 16.5C24.5449 16.5 26 15.0449 26 13.25C26 11.4551 24.5449 10 22.75 10C20.9551 10 19.5 11.4551 19.5 13.25C19.5 13.4883 19.5256 13.7206 19.5743 13.9443L15.9175 16.0783C15.3424 15.5632 14.5828 15.25 13.75 15.25C11.9551 15.25 10.5 16.7051 10.5 18.5C10.5 20.2949 11.9551 21.75 13.75 21.75C14.583 21.75 15.3428 21.4366 15.9179 20.9213L19.575 23.0524C19.5259 23.2771 19.5 23.5105 19.5 23.75C19.5 25.5449 20.9551 27 22.75 27C24.5449 27 26 25.5449 26 23.75C26 21.9551 24.5449 20.5 22.75 20.5C21.9184 20.5 21.1597 20.8123 20.5849 21.3261L16.9258 19.1938C16.9744 18.9703 17 18.7381 17 18.5C17 18.2617 16.9743 18.0294 16.9257 17.8056L20.5824 15.6716ZM14.8071 17.8325C14.8139 17.8456 14.8212 17.8586 14.8287 17.8715C14.8363 17.8845 14.8441 17.8973 14.8522 17.9098C14.9465 18.0856 15 18.2865 15 18.5C15 18.7135 14.9465 18.9145 14.8521 19.0903C14.844 19.103 14.836 19.1159 14.8284 19.129C14.821 19.1417 14.8139 19.1545 14.8071 19.1674C14.5856 19.5175 14.1949 19.75 13.75 19.75C13.0596 19.75 12.5 19.1904 12.5 18.5C12.5 17.8096 13.0596 17.25 13.75 17.25C14.1949 17.25 14.5855 17.4824 14.8071 17.8325ZM21.5 23.75C21.5 23.5537 21.5452 23.368 21.6259 23.2027C21.6447 23.1766 21.6624 23.1493 21.6789 23.121C21.6946 23.094 21.7089 23.0666 21.7218 23.0389C21.9475 22.7133 22.3238 22.5 22.75 22.5C23.4404 22.5 24 23.0596 24 23.75C24 24.4404 23.4404 25 22.75 25C22.0596 25 21.5 24.4404 21.5 23.75Z" fill="black"/>
</svg>
