<svg width="38" height="35" viewBox="0 0 38 35" fill="none" xmlns="http://www.w3.org/2000/svg">
<rect x="0.5" width="37" height="35" rx="17.5" fill="#F0F0F0"/>
<path d="M26.1891 11.3261C25.7738 10.9057 25.2806 10.5722 24.7377 10.3447C24.1949 10.1171 23.6131 10 23.0255 10C22.4379 10 21.8561 10.1171 21.3133 10.3447C20.7704 10.5722 20.2772 10.9057 19.8619 11.3261L18.9998 12.1982L18.1377 11.3261C17.2987 10.4773 16.1607 10.0004 14.9741 10.0004C13.7875 10.0004 12.6495 10.4773 11.8104 11.3261C10.9714 12.1749 10.5 13.3262 10.5 14.5266C10.5 15.727 10.9714 16.8782 11.8104 17.727L12.6725 18.5991L18.9998 25L25.3271 18.5991L26.1891 17.727C26.6047 17.3068 26.9344 16.8079 27.1593 16.2587C27.3842 15.7096 27.5 15.121 27.5 14.5266C27.5 13.9321 27.3842 13.3435 27.1593 12.7944C26.9344 12.2453 26.6047 11.7463 26.1891 11.3261Z" stroke="black" stroke-width="2" stroke-linecap="round" stroke-linejoin="round"/>
</svg>
