<svg width="61" height="60" viewBox="0 0 61 60" fill="none" xmlns="http://www.w3.org/2000/svg">
<circle cx="30.5" cy="30" r="30" fill="#E4DDF4"/>
<path fill-rule="evenodd" clip-rule="evenodd" d="M35.0915 16.1801L42.2464 23.7052C42.4357 23.9049 42.5416 24.1702 42.5416 24.4469V37.5531C42.5416 41.1388 39.6449 44.1668 36.2143 44.1668H24.9324C21.3013 44.1668 18.4583 41.2615 18.4583 37.5531V33.9788C18.4583 33.3883 18.9328 32.9091 19.5175 32.9091C20.1022 32.9091 20.5768 33.3883 20.5768 33.9788V37.5531C20.5768 40.1033 22.4481 42.0274 24.9324 42.0274H36.2143C38.4966 42.0274 40.4231 39.9778 40.4231 37.5531V24.8762L35.0152 19.1881V21.0537C35.0152 22.4857 36.1691 23.6539 37.5871 23.6567C38.1718 23.6581 38.6449 24.1374 38.6435 24.7293C38.6421 25.3184 38.169 25.7962 37.5842 25.7962H37.5828C34.9997 25.7905 32.8967 23.6639 32.8967 21.0537V17.9901H24.9324C22.571 17.9901 20.5768 19.9355 20.5768 22.239V28.1638C20.5768 28.7543 20.1022 29.2335 19.5175 29.2335C18.9328 29.2335 18.4583 28.7543 18.4583 28.1638V22.239C18.4583 18.7759 21.4228 15.8506 24.9324 15.8506H33.874C33.8876 15.8493 33.9 15.8456 33.9121 15.842C33.9265 15.8377 33.9406 15.8335 33.9559 15.8335C33.9725 15.8335 33.9872 15.8379 34.002 15.8423C34.0137 15.8458 34.0253 15.8493 34.0378 15.8506H34.3274C34.6155 15.8506 34.8909 15.969 35.0915 16.1801ZM31.0146 35.8217C31.0146 36.4122 30.54 36.8914 29.9553 36.8914C29.3706 36.8914 28.8961 36.4122 28.8961 35.8217V29.0354L26.697 31.2675C26.2846 31.6869 25.6138 31.6869 25.1985 31.2704C24.7847 30.8539 24.7833 30.1764 25.1957 29.7571L29.2054 25.6907V25.6893C29.3974 25.4967 29.663 25.3769 29.9553 25.3769C30.2491 25.3769 30.5132 25.4967 30.7053 25.6893V25.6907L34.7149 29.7571C35.1273 30.1764 35.1259 30.8539 34.7121 31.2704C34.5045 31.4772 34.2347 31.5813 33.9636 31.5813C33.6924 31.5813 33.4212 31.4772 33.2136 31.2675L31.0146 29.0354V35.8217Z" fill="#6E47D5"/>
</svg>
