<svg width="43" height="42" viewBox="0 0 43 42" fill="none" xmlns="http://www.w3.org/2000/svg">
<path d="M14.7432 27.2305C14.0701 27.23 13.4248 26.9625 12.9488 26.4866C12.4727 26.0108 12.205 25.3656 12.2042 24.6925V17.3085C12.2047 16.6353 12.4724 15.9898 12.9484 15.5138C13.4244 15.0377 14.0699 14.7701 14.7432 14.7695H23.0502C23.7062 14.7703 24.3365 15.0246 24.8093 15.4794C25.2821 15.9341 25.5608 16.554 25.5872 17.2095L27.9872 16.2485C28.385 16.0895 28.8297 16.095 29.2235 16.2638C29.6173 16.4325 29.9279 16.7508 30.0872 17.1485C30.164 17.3392 30.2034 17.5429 30.2032 17.7485V24.2485C30.2033 24.5126 30.1387 24.7728 30.015 25.0061C29.8912 25.2395 29.7122 25.4389 29.4935 25.5869C29.2747 25.735 29.023 25.8271 28.7604 25.8553C28.4978 25.8835 28.2323 25.8468 27.9872 25.7485L25.5872 24.7885C25.5608 25.444 25.2821 26.0639 24.8093 26.5187C24.3365 26.9734 23.7062 27.2278 23.0502 27.2285L14.7432 27.2305ZM13.5882 17.3085V24.6925C13.5887 24.9986 13.7106 25.292 13.9271 25.5083C14.1436 25.7246 14.4371 25.8463 14.7432 25.8465H23.0502C23.3561 25.8463 23.6495 25.7246 23.8659 25.5082C24.0822 25.2919 24.2039 24.9985 24.2042 24.6925V17.3085C24.2039 17.0025 24.0823 16.709 23.8659 16.4925C23.6496 16.2759 23.3562 16.1541 23.0502 16.1535H14.7432C14.437 16.1541 14.1435 16.2759 13.927 16.4924C13.7105 16.7089 13.5887 17.0024 13.5882 17.3085ZM28.5042 24.4695C28.5391 24.4834 28.577 24.4885 28.6143 24.4844C28.6517 24.4803 28.6876 24.4671 28.7187 24.446C28.7498 24.4249 28.7754 24.3965 28.793 24.3633C28.8107 24.3302 28.82 24.2931 28.8202 24.2555V17.7555C28.82 17.7179 28.8107 17.6809 28.793 17.6477C28.7754 17.6145 28.7498 17.5861 28.7187 17.5651C28.6876 17.544 28.6517 17.5308 28.6143 17.5267C28.577 17.5226 28.5391 17.5277 28.5042 17.5415L25.5892 18.6995V23.2995L28.5042 24.4695Z" fill="#27AE60"/>
</svg>
